<?xml version="1.0" encoding="UTF-8" standalone="no"?>
<!-- Generator: Adobe Illustrator 23.0.3, SVG Export Plug-In . SVG Version: 6.00 Build 0)  -->

<svg
   xmlns:dc="http://purl.org/dc/elements/1.1/"
   xmlns:cc="http://creativecommons.org/ns#"
   xmlns:rdf="http://www.w3.org/1999/02/22-rdf-syntax-ns#"
   xmlns:svg="http://www.w3.org/2000/svg"
   xmlns="http://www.w3.org/2000/svg"
   xmlns:sodipodi="http://sodipodi.sourceforge.net/DTD/sodipodi-0.dtd"
   xmlns:inkscape="http://www.inkscape.org/namespaces/inkscape"
   version="1.1"
   id="Ebene_1"
   x="0px"
   y="0px"
   viewBox="0 0 146.86421 227.5966"
   xml:space="preserve"
   sodipodi:docname="icon.svg"
   width="146.86421"
   height="227.5966"
   inkscape:version="0.92.3 (2405546, 2018-03-11)"><metadata
   id="metadata47"><rdf:RDF><cc:Work
       rdf:about=""><dc:format>image/svg+xml</dc:format><dc:type
         rdf:resource="http://purl.org/dc/dcmitype/StillImage" /></cc:Work></rdf:RDF></metadata><defs
   id="defs45" /><sodipodi:namedview
   pagecolor="#ffffff"
   bordercolor="#666666"
   borderopacity="1"
   objecttolerance="10"
   gridtolerance="10"
   guidetolerance="10"
   inkscape:pageopacity="0"
   inkscape:pageshadow="2"
   inkscape:window-width="1920"
   inkscape:window-height="1015"
   id="namedview43"
   showgrid="false"
   inkscape:zoom="1.7492734"
   inkscape:cx="187.97588"
   inkscape:cy="220.03445"
   inkscape:window-x="0"
   inkscape:window-y="36"
   inkscape:window-maximized="1"
   inkscape:current-layer="Ebene_1" />
<style
   type="text/css"
   id="style2">
	.st0{fill:url(#SVGID_1_);}
	.st1{fill:url(#SVGID_2_);}
	.st2{fill:#2666fc;}
</style>
    <g
   id="g11"
   transform="translate(0.0448341,-1.5721078)">
	
		<linearGradient
   id="SVGID_1_"
   gradientUnits="userSpaceOnUse"
   x1="1197.2715"
   y1="683.85718"
   x2="1323.9916"
   y2="557.13708"
   gradientTransform="translate(-1210.8405,-537.5859)">
		<stop
   offset="0"
   style="stop-color:#46D599"
   id="stop4" />
            <stop
   offset="1"
   style="stop-color:#4571FF"
   id="stop6" />
	</linearGradient>
        <path
   class="st0"
   d="M 103.29,9.84 99.5,6.71 C 91.9,0.45 81.08,-0.03 72.96,5.52 L 9.65,48.75 C 3.61,52.88 0,59.71 0,67.03 v 3.68 c 0,5.5 0,14.5 0,20 v 59.97 c 0,6.57 2.92,12.79 7.96,17 l 1.88,1.57 c 8.79,7.33 21.72,6.74 29.81,-1.35 l 16.57,-16.57 c 8.64,-8.64 8.64,-22.65 0,-31.29 v 0 c -8.8,-8.8 -8.61,-23.13 0.42,-31.7 l 47.81,-45.36 c 9.65,-9.16 9.1,-24.69 -1.16,-33.14 z"
   id="path9"
   inkscape:connector-curvature="0"
   style="fill:url(#SVGID_1_)" />
</g>
    <g
   id="g20"
   transform="translate(0.0448341,-1.5721078)">
	
		<linearGradient
   id="SVGID_2_"
   gradientUnits="userSpaceOnUse"
   x1="1244.6071"
   y1="749.03479"
   x2="1371.3271"
   y2="622.31458"
   gradientTransform="translate(-1210.8405,-537.5859)">
		<stop
   offset="0"
   style="stop-color:#FFF71B"
   id="stop13" />
            <stop
   offset="1"
   style="stop-color:#F7931E"
   id="stop15" />
	</linearGradient>
        <path
   class="st1"
   d="m 43.63,221.16 3.79,3.12 c 7.6,6.26 18.42,6.74 26.54,1.19 l 63.3,-43.23 c 6.04,-4.12 9.65,-10.96 9.65,-18.27 v -3.68 c 0,-5.5 0,-14.5 0,-20 V 80.33 c 0,-6.57 -2.92,-12.79 -7.96,-17 l -1.88,-1.57 c -8.79,-7.33 -21.72,-6.74 -29.81,1.35 L 90.69,79.68 c -8.64,8.64 -8.64,22.65 0,31.29 v 0 c 8.8,8.8 8.61,23.13 -0.42,31.7 l -47.81,45.36 c -9.64,9.15 -9.1,24.68 1.17,33.13 z"
   id="path18"
   inkscape:connector-curvature="0"
   style="fill:url(#SVGID_2_)" />
</g>
    
<rect
   style="opacity:0.4;fill:none;fill-opacity:1"
   id="rect854"
   width="146.86421"
   height="227.5966"
   x="0"
   y="0"
   ry="0.80845773" /></svg>